<?xml version="1.0" encoding="UTF-8"?>
<svg width="400" height="300" viewBox="0 0 400 300" fill="none" xmlns="http://www.w3.org/2000/svg">
  <!-- Background -->
  <rect width="400" height="300" rx="20" fill="#f8fafc"/>
  <rect width="400" height="300" rx="20" fill="url(#gradient2)" opacity="0.1"/>
  
  <!-- Desktop/Laptop mockup -->
  <rect x="100" y="80" width="200" height="120" rx="8" fill="#1e293b" stroke="#334155" stroke-width="2"/>
  <rect x="105" y="85" width="190" height="105" rx="4" fill="#0f172a"/>
  
  <!-- Screen content - LyrIQ interface -->
  <rect x="110" y="95" width="180" height="20" rx="3" fill="#2DD4BF" opacity="0.9"/>
  <text x="200" y="107" text-anchor="middle" fill="white" font-family="Arial" font-size="11" font-weight="bold">LyrIQ - AI Lyric Assistant</text>
  
  <!-- Text lines representing lyrics -->
  <rect x="115" y="125" width="120" height="3" rx="1.5" fill="#64748b"/>
  <rect x="115" y="135" width="100" height="3" rx="1.5" fill="#64748b"/>
  <rect x="115" y="145" width="140" height="3" rx="1.5" fill="#2DD4BF"/>
  <rect x="115" y="155" width="90" height="3" rx="1.5" fill="#64748b"/>
  <rect x="115" y="165" width="110" height="3" rx="1.5" fill="#64748b"/>
  
  <!-- AI suggestion box -->
  <rect x="250" y="130" width="35" height="25" rx="4" fill="#f59e0b" opacity="0.2" stroke="#f59e0b" stroke-width="1"/>
  <text x="267" y="140" text-anchor="middle" fill="#f59e0b" font-family="Arial" font-size="6" font-weight="bold">AI</text>
  <text x="267" y="148" text-anchor="middle" fill="#f59e0b" font-family="Arial" font-size="6">SUGGEST</text>
  
  <!-- Laptop base -->
  <ellipse cx="200" cy="200" rx="110" ry="5" fill="#64748b"/>
  
  <!-- Musical notes -->
  <g transform="translate(50, 120)">
    <circle cx="0" cy="0" r="4" fill="#2DD4BF"/>
    <rect x="3" y="-15" width="1.5" height="15" fill="#2DD4BF"/>
    <path d="M4.5 -15 Q10 -12 10 -8" stroke="#2DD4BF" stroke-width="1.5" fill="none"/>
  </g>
  
  <g transform="translate(330, 140)">
    <circle cx="0" cy="0" r="4" fill="#0891B2"/>
    <rect x="3" y="-15" width="1.5" height="15" fill="#0891B2"/>
    <circle cx="8" cy="-5" r="3" fill="#0891B2"/>
    <rect x="11" y="-15" width="1.5" height="10" fill="#0891B2"/>
  </g>
  
  <g transform="translate(70, 200)">
    <circle cx="0" cy="0" r="3" fill="#64748b"/>
    <rect x="2" y="-10" width="1" height="10" fill="#64748b"/>
  </g>
  
  <!-- Brain/AI icon -->
  <g transform="translate(320, 60)">
    <path d="M0 8 Q0 0 8 0 Q16 0 16 8 Q16 12 12 14 Q8 16 4 14 Q0 12 0 8 Z" fill="#f59e0b" opacity="0.3"/>
    <circle cx="6" cy="6" r="1" fill="#f59e0b"/>
    <circle cx="10" cy="6" r="1" fill="#f59e0b"/>
    <circle cx="8" cy="10" r="0.8" fill="#f59e0b"/>
    <path d="M4 8 Q8 6 12 8" stroke="#f59e0b" stroke-width="0.8" fill="none"/>
  </g>
  
  <!-- Decorative elements -->
  <circle cx="60" cy="60" r="2" fill="#cbd5e1"/>
  <circle cx="340" cy="220" r="2" fill="#cbd5e1"/>
  <circle cx="30" cy="180" r="3" fill="#e2e8f0"/>
  <circle cx="370" cy="40" r="3" fill="#e2e8f0"/>
  
  <defs>
    <linearGradient id="gradient2" x1="0%" y1="0%" x2="100%" y2="100%">
      <stop offset="0%" style="stop-color:#f59e0b;stop-opacity:1" />
      <stop offset="100%" style="stop-color:#2DD4BF;stop-opacity:1" />
    </linearGradient>
  </defs>
</svg>