<?xml version="1.0" encoding="UTF-8"?>
<svg width="400" height="300" viewBox="0 0 400 300" fill="none" xmlns="http://www.w3.org/2000/svg">
  <!-- Background -->
  <rect width="400" height="300" rx="20" fill="#f8fafc"/>
  <rect width="400" height="300" rx="20" fill="url(#gradient1)" opacity="0.1"/>
  
  <!-- Phone mockup -->
  <rect x="150" y="40" width="100" height="180" rx="15" fill="#1e293b" stroke="#334155" stroke-width="2"/>
  <rect x="155" y="50" width="90" height="160" rx="8" fill="#0f172a"/>
  
  <!-- Screen content -->
  <rect x="160" y="60" width="80" height="30" rx="4" fill="#2DD4BF" opacity="0.8"/>
  <text x="200" y="78" text-anchor="middle" fill="white" font-family="Arial" font-size="10" font-weight="bold">VAULT</text>
  
  <!-- Currency symbols -->
  <text x="170" y="105" fill="#64748b" font-family="Arial" font-size="12" font-weight="bold">$</text>
  <text x="185" y="105" fill="#64748b" font-family="Arial" font-size="12" font-weight="bold">€</text>
  <text x="200" y="105" fill="#64748b" font-family="Arial" font-size="12" font-weight="bold">£</text>
  <text x="215" y="105" fill="#64748b" font-family="Arial" font-size="12" font-weight="bold">¥</text>
  
  <!-- Budget bars -->
  <rect x="165" y="120" width="70" height="4" rx="2" fill="#e2e8f0"/>
  <rect x="165" y="120" width="45" height="4" rx="2" fill="#2DD4BF"/>
  
  <rect x="165" y="135" width="70" height="4" rx="2" fill="#e2e8f0"/>
  <rect x="165" y="135" width="30" height="4" rx="2" fill="#f59e0b"/>
  
  <rect x="165" y="150" width="70" height="4" rx="2" fill="#e2e8f0"/>
  <rect x="165" y="150" width="60" height="4" rx="2" fill="#ef4444"/>
  
  <!-- Travel icons -->
  <circle cx="100" cy="100" r="25" fill="#2DD4BF" opacity="0.2"/>
  <path d="M85 95 L95 85 L105 95 L115 85" stroke="#2DD4BF" stroke-width="3" fill="none" stroke-linecap="round"/>
  <circle cx="90" cy="105" r="3" fill="#2DD4BF"/>
  <circle cx="110" cy="105" r="3" fill="#2DD4BF"/>
  
  <circle cx="300" cy="180" r="25" fill="#0891B2" opacity="0.2"/>
  <rect x="290" y="170" width="20" height="15" rx="2" fill="none" stroke="#0891B2" stroke-width="2"/>
  <rect x="292" y="175" width="6" height="3" fill="#0891B2"/>
  <rect x="302" y="175" width="6" height="3" fill="#0891B2"/>
  <path d="M295 168 L300 163 L305 168" stroke="#0891B2" stroke-width="2" fill="none"/>
  
  <!-- Decorative elements -->
  <circle cx="80" cy="220" r="2" fill="#cbd5e1"/>
  <circle cx="320" cy="80" r="2" fill="#cbd5e1"/>
  <circle cx="50" cy="50" r="3" fill="#e2e8f0"/>
  <circle cx="350" cy="250" r="3" fill="#e2e8f0"/>
  
  <defs>
    <linearGradient id="gradient1" x1="0%" y1="0%" x2="100%" y2="100%">
      <stop offset="0%" style="stop-color:#2DD4BF;stop-opacity:1" />
      <stop offset="100%" style="stop-color:#0891B2;stop-opacity:1" />
    </linearGradient>
  </defs>
</svg>